<svg width="191" height="28" viewBox="0 0 191 28" fill="none" xmlns="http://www.w3.org/2000/svg">
<path d="M0 15.7614L2.79299 18.8128L16.3478 4.00397L13.5548 0.952578L0 15.7614Z" fill="#FFBE07"/>
<path d="M6.48266 14.8089L9.27565 17.8602L22.8305 3.05139L20.0375 0L6.48266 14.8089Z" fill="#211F1F"/>
<path d="M8.41371 24.9486L11.2067 28L24.7615 13.1911L21.9685 10.1398L8.41371 24.9486Z" fill="#211F1F"/>
<path d="M7.43886 19.8689L10.2319 22.9203L23.7867 8.11147L20.9937 5.06007L7.43886 19.8689Z" fill="#FFBE07"/>
<path d="M14.8899 23.9777L17.6797 27.0256L31.242 12.2085L28.4246 9.16061L14.8899 23.9777Z" fill="#FFBE07"/>
<path d="M46.7788 9.64552V12.3903H52.1139V15.7886H46.7788V21.8663H43.242V6.24722H52.9531V9.64552H46.7788Z" fill="#211F1F"/>
<path d="M62.8437 21.8665L60.326 16.0502H59.1271V21.8665H55.5903V6.24738H61.2851C62.7837 6.24738 63.9826 6.77019 64.8818 7.75047C65.721 8.73075 66.2006 9.90709 66.2006 11.2795C66.2006 12.2598 65.9608 13.1093 65.5412 13.7628C65.0616 14.4817 64.5221 15.0045 63.8627 15.3313L66.9799 21.8665H62.8437ZM61.1052 9.71103H59.1271V12.8479H61.1052C61.5848 12.8479 61.9445 12.7172 62.2442 12.3905C62.5439 12.0637 62.6638 11.7369 62.6638 11.2795C62.6638 10.8874 62.5439 10.4953 62.2442 10.1685C61.9445 9.84173 61.5848 9.71103 61.1052 9.71103Z" fill="#211F1F"/>
<path d="M69.1379 21.8665V6.24738H78.8491V9.64568H72.6148V12.2598H77.9499V15.6581H72.6148V18.4028H78.8491V21.8011H69.1379V21.8665Z" fill="#211F1F"/>
<path d="M81.7268 21.8665V6.24738H85.2635V21.8665H81.7268Z" fill="#211F1F"/>
<path d="M97.6721 20.233C97.1326 20.8865 96.4732 21.344 95.8139 21.6054C95.1545 21.8668 94.3752 21.9975 93.5359 21.9975C91.9774 21.9975 90.7185 21.54 89.8793 20.5598C88.9801 19.5795 88.5006 18.6646 88.3807 17.815C88.2608 16.9001 88.1409 15.6584 88.1409 14.0899C88.1409 12.4561 88.2008 11.1491 88.3807 10.2995C88.5006 9.44994 88.9202 8.66572 89.5196 8.0122C90.1191 7.35868 90.7185 6.90122 91.3779 6.57446C92.0373 6.2477 92.7567 6.11699 93.5959 6.11699C95.2743 6.11699 96.5931 6.63981 97.5523 7.62009C98.4514 8.60037 99.0509 9.84205 99.2307 11.2798H95.694C95.5741 10.6916 95.3343 10.2342 95.0346 9.97276C94.7348 9.71135 94.2553 9.58064 93.6558 9.58064C93.3561 9.58064 93.0564 9.646 92.8166 9.7767C92.5768 9.9074 92.397 10.1035 92.2171 10.2995C92.0373 10.5609 91.9174 10.8877 91.8575 11.4105C91.7975 11.868 91.7376 12.7829 91.7376 14.0899C91.7376 15.397 91.7975 16.3119 91.8575 16.8347C91.9174 17.3575 92.0973 17.7496 92.337 18.0764C92.5768 18.4031 92.9964 18.5992 93.6558 18.5992C94.3752 18.5992 94.8547 18.4685 95.0945 18.1417C95.3343 17.815 95.5141 17.5536 95.634 17.2268C95.7539 16.9001 95.7539 16.6386 95.7539 16.3119V16.0505H93.6558V12.8482H99.2907V15.0049C99.2907 16.3119 99.1708 17.3575 98.9909 18.1417C98.6313 18.926 98.2716 19.6448 97.6721 20.233Z" fill="#211F1F"/>
<path d="M109.242 21.8665V15.6581H105.525V21.8665H101.988V6.24738H105.525V12.2598H109.242V6.24738H112.778V21.8665H109.242Z" fill="#211F1F"/>
<path d="M122.25 9.64568V21.8665H118.713V9.64568H115.176V6.24738H125.727V9.64568H122.25Z" fill="#211F1F"/>
<path d="M140.907 9.53164V21.7524H137.371V9.53164H133.834V6.13334H144.384V9.53164H140.907Z" fill="#211F1F"/>
<path d="M146.062 21.7523V6.13318H149.599V21.7523H146.062Z" fill="#211F1F"/>
<path d="M162.008 20.1187C161.468 20.7722 160.809 21.2297 160.15 21.4911C159.49 21.7525 158.711 21.8832 157.872 21.8832C156.313 21.8832 155.054 21.4257 154.215 20.4455C153.316 19.4652 152.836 18.5502 152.717 17.7007C152.597 16.7857 152.477 15.5441 152.477 13.9756C152.477 12.3418 152.537 11.0348 152.717 10.1852C152.836 9.33563 153.256 8.55141 153.855 7.89789C154.455 7.24437 155.054 6.78691 155.714 6.46015C156.373 6.13339 157.092 6.00269 157.932 6.00269C159.61 6.00269 160.929 6.5255 161.888 7.50578C162.787 8.48606 163.387 9.72774 163.567 11.1655H160.03C159.91 10.5773 159.67 10.1199 159.37 9.85845C159.071 9.59704 158.591 9.46634 157.992 9.46634C157.692 9.46634 157.392 9.53169 157.152 9.66239C156.913 9.7931 156.733 9.98915 156.553 10.1852C156.373 10.4466 156.253 10.7734 156.193 11.2962C156.133 11.7537 156.073 12.6686 156.073 13.9756C156.073 15.2827 156.133 16.1976 156.193 16.7204C156.253 17.2432 156.433 17.6353 156.673 17.9621C156.913 18.2888 157.332 18.4849 157.992 18.4849C158.711 18.4849 159.191 18.3542 159.43 18.0274C159.67 17.7007 159.85 17.4393 159.97 17.1125C160.03 16.8511 160.09 16.5243 160.09 16.1976V16.0015H157.992V12.7993H163.627V14.9559C163.627 16.2629 163.507 17.3086 163.327 18.0928C163.147 18.877 162.547 19.4652 162.008 20.1187Z" fill="#211F1F"/>
<path d="M166.264 21.7523V6.13318H175.975V9.53148H169.741V12.1456H175.076V15.5439H169.741V18.2886H175.975V21.6869H166.264V21.7523Z" fill="#211F1F"/>
<path d="M186.106 21.7523L183.588 15.936H182.389V21.7523H178.852V6.13318H184.547C186.046 6.13318 187.245 6.65599 188.144 7.63627C188.983 8.61655 189.463 9.79289 189.463 11.1653C189.463 12.1456 189.223 12.9951 188.803 13.6486C188.324 14.3675 187.784 14.8903 187.125 15.2171L190.242 21.7523H186.106ZM184.427 9.53148H182.449V12.6684H184.427C184.907 12.6684 185.267 12.5377 185.566 12.2109C185.866 11.8841 185.986 11.5574 185.986 11.0999C185.986 10.6425 185.866 10.3157 185.566 9.98894C185.267 9.72753 184.847 9.53148 184.427 9.53148Z" fill="#211F1F"/>
</svg>
