<?xml version="1.0" encoding="UTF-8" standalone="no"?>
<svg width="237" height="45" viewBox="0 0 237 45" fill="none" xmlns="http://www.w3.org/2000/svg">
  <!-- Yellow triangle/tiger shape -->
  <path d="M0 0H50V45H0L10 22.5L0 0Z" fill="#FFBE07"/>
  
  <!-- Text "FREIGHT TIGER" -->
  <path d="M60 15H65V17H62V20H65V22H62V27H60V15Z" fill="#211F1F"/>
  <path d="M67 15H72C73.1 15 74 15.9 74 17V25C74 26.1 73.1 27 72 27H67V15ZM69 17V25H72V17H69Z" fill="#211F1F"/>
  <path d="M76 15H81V17H78V20H81V22H78V25H81V27H76V15Z" fill="#211F1F"/>
  <path d="M83 15H85V25H88V27H83V15Z" fill="#211F1F"/>
  <path d="M90 15H95C96.1 15 97 15.9 97 17V19C97 20.1 96.1 21 95 21H92V27H90V15ZM92 17V19H95V17H92Z" fill="#211F1F"/>
  <path d="M99 15H101V27H99V15Z" fill="#211F1F"/>
  <path d="M104 15H106V25H109V27H104V15Z" fill="#211F1F"/>
  <path d="M111 15H113V27H111V15Z" fill="#211F1F"/>
  <path d="M116 15H118V20H121V15H123V27H121V22H118V27H116V15Z" fill="#211F1F"/>
  <path d="M126 15H131V17H128V20H131V22H128V25H131V27H126V15Z" fill="#211F1F"/>
  <path d="M133 15H138C139.1 15 140 15.9 140 17V25C140 26.1 139.1 27 138 27H133V15ZM135 17V25H138V17H135Z" fill="#211F1F"/>
</svg>
