<svg width="237" height="45" viewBox="0 0 237 45" fill="none" xmlns="http://www.w3.org/2000/svg">
<path d="M0 25.3309L4.46993 30.2349L26.1631 6.43495L21.6932 1.53093L0 25.3309Z" fill="#FFBE07"/>
<path d="M10.3749 23.7999L14.8448 28.704L36.538 4.90402L32.0681 0L10.3749 23.7999Z" fill="#211F1F"/>
<path d="M13.4654 40.096L17.9353 45L39.6285 21.2001L35.1586 16.296L13.4654 40.096Z" fill="#211F1F"/>
<path d="M11.9052 31.9322L16.3751 36.8362L38.0684 13.0363L33.5984 8.13226L11.9052 31.9322Z" fill="#FFBE07"/>
<path d="M23.8299 38.5356L28.2947 43.434L50 19.6208L45.491 14.7224L23.8299 38.5356Z" fill="#FFBE07"/>
<path d="M66.2104 17.3273V20.5877H72.5618V24.6245H66.2104V31.8442H62V13.2905H73.5608V17.3273H66.2104Z" fill="#211F1F"/>
<path d="M85.3353 31.8444L82.338 24.9352H80.9107V31.8444H76.7003V13.2907H83.4798C85.2639 13.2907 86.6912 13.9117 87.7616 15.0762C88.7607 16.2406 89.3316 17.638 89.3316 19.2682C89.3316 20.4327 89.0461 21.4419 88.5466 22.2182C87.9757 23.0721 87.3334 23.6932 86.5484 24.0813L90.2593 31.8444H85.3353ZM83.2657 17.4051H80.9107V21.1314H83.2657C83.8366 21.1314 84.2648 20.9761 84.6216 20.5879C84.9784 20.1998 85.1212 19.8116 85.1212 19.2682C85.1212 18.8024 84.9784 18.3367 84.6216 17.9485C84.2648 17.5603 83.8366 17.4051 83.2657 17.4051Z" fill="#211F1F"/>
<path d="M92.8285 31.8444V13.2907H104.389V17.3275H96.9675V20.4327H103.319V24.4695H96.9675V27.7299H104.389V31.7667H92.8285V31.8444Z" fill="#211F1F"/>
<path d="M107.815 31.8444V13.2907H112.026V31.8444H107.815Z" fill="#211F1F"/>
<path d="M126.798 29.904C126.155 30.6803 125.37 31.2237 124.585 31.5342C123.801 31.8447 122.873 32 121.874 32C120.018 32 118.52 31.4566 117.521 30.2921C116.45 29.1277 115.879 28.0408 115.736 27.0316C115.594 25.9448 115.451 24.4698 115.451 22.6067C115.451 20.6659 115.522 19.1133 115.736 18.1041C115.879 17.0949 116.379 16.1634 117.092 15.3871C117.806 14.6108 118.52 14.0674 119.305 13.6792C120.09 13.291 120.946 13.1358 121.945 13.1358C123.943 13.1358 125.513 13.7568 126.655 14.9213C127.725 16.0857 128.439 17.5607 128.653 19.2686H124.443C124.3 18.5699 124.015 18.0265 123.658 17.716C123.301 17.4055 122.73 17.2502 122.016 17.2502C121.66 17.2502 121.303 17.3278 121.017 17.4831C120.732 17.6384 120.518 17.8712 120.304 18.1041C120.09 18.4147 119.947 18.8028 119.876 19.4239C119.804 19.9673 119.733 21.0541 119.733 22.6067C119.733 24.1593 119.804 25.2461 119.876 25.8672C119.947 26.4882 120.161 26.954 120.446 27.3422C120.732 27.7303 121.231 27.9632 122.016 27.9632C122.873 27.9632 123.444 27.808 123.729 27.4198C124.015 27.0316 124.229 26.7211 124.371 26.333C124.514 25.9448 124.514 25.6343 124.514 25.2461V24.9356H122.016V21.1317H128.725V23.6935C128.725 25.2461 128.582 26.4882 128.368 27.4198C127.94 28.3514 127.511 29.2053 126.798 29.904Z" fill="#211F1F"/>
<path d="M140.571 31.8444V24.4695H136.147V31.8444H131.936V13.2907H136.147V20.4327H140.571V13.2907H144.781V31.8444H140.571Z" fill="#211F1F"/>
<path d="M156.057 17.3275V31.8444H151.846V17.3275H147.636V13.2907H160.196V17.3275H156.057Z" fill="#211F1F"/>
<path d="M178.268 17.192V31.7089H174.058V17.192H169.847V13.1552H182.407V17.192H178.268Z" fill="#211F1F"/>
<path d="M184.405 31.7087V13.155H188.616V31.7087H184.405Z" fill="#211F1F"/>
<path d="M203.388 29.7682C202.746 30.5445 201.961 31.0879 201.176 31.3984C200.391 31.709 199.463 31.8642 198.464 31.8642C196.609 31.8642 195.11 31.3208 194.111 30.1563C193.04 28.9919 192.469 27.9051 192.327 26.8959C192.184 25.809 192.041 24.3341 192.041 22.4709C192.041 20.5302 192.113 18.9775 192.327 17.9684C192.469 16.9592 192.969 16.0276 193.683 15.2513C194.396 14.475 195.11 13.9316 195.895 13.5434C196.68 13.1553 197.536 13 198.535 13C200.534 13 202.104 13.621 203.245 14.7855C204.316 15.95 205.029 17.4249 205.243 19.1328H201.033C200.89 18.4341 200.605 17.8907 200.248 17.5802C199.891 17.2697 199.32 17.1144 198.607 17.1144C198.25 17.1144 197.893 17.192 197.608 17.3473C197.322 17.5026 197.108 17.7355 196.894 17.9684C196.68 18.2789 196.537 18.667 196.466 19.2881C196.394 19.8315 196.323 20.9183 196.323 22.4709C196.323 24.0235 196.394 25.1104 196.466 25.7314C196.537 26.3524 196.751 26.8182 197.037 27.2064C197.322 27.5945 197.822 27.8274 198.607 27.8274C199.463 27.8274 200.034 27.6722 200.319 27.284C200.605 26.8959 200.819 26.5853 200.962 26.1972C201.033 25.8867 201.104 25.4985 201.104 25.1104V24.8775H198.607V21.0736H205.315V23.6354C205.315 25.188 205.172 26.4301 204.958 27.3616C204.744 28.2932 204.03 28.9919 203.388 29.7682Z" fill="#211F1F"/>
<path d="M208.455 31.7087V13.155H220.016V17.1918H212.594V20.297H218.945V24.3338H212.594V27.5943H220.016V31.6311H208.455V31.7087Z" fill="#211F1F"/>
<path d="M232.076 31.7087L229.079 24.7996H227.651V31.7087H223.441V13.155H230.221C232.005 13.155 233.432 13.7761 234.502 14.9405C235.501 16.105 236.072 17.5023 236.072 19.1326C236.072 20.297 235.787 21.3062 235.287 22.0825C234.716 22.9365 234.074 23.5575 233.289 23.9457L237 31.7087H232.076ZM230.078 17.1918H227.723V20.9181H230.078C230.649 20.9181 231.077 20.7628 231.434 20.3746C231.79 19.9865 231.933 19.5983 231.933 19.0549C231.933 18.5115 231.79 18.1234 231.434 17.7352C231.077 17.4247 230.577 17.1918 230.078 17.1918Z" fill="#211F1F"/>
</svg>
