<svg width="570" height="100" viewBox="0 0 570 100" fill="none" xmlns="http://www.w3.org/2000/svg">
  <path d="M20.8333 0L0 20.8333L20.8333 41.6667L41.6667 20.8333L20.8333 0Z" fill="#FFC700"/>
  <path d="M41.6667 20.8333L20.8333 41.6667L41.6667 62.5L62.5 41.6667L41.6667 20.8333Z" fill="#FFC700"/>
  <path d="M62.5 41.6667L41.6667 62.5L62.5 83.3333L83.3333 62.5L62.5 41.6667Z" fill="#FFC700"/>
  <path d="M41.6667 62.5L20.8333 83.3333L41.6667 104.167L62.5 83.3333L41.6667 62.5Z" fill="#FFC700"/>
  <path d="M41.6667 20.8333L62.5 41.6667L41.6667 62.5L20.8333 41.6667L41.6667 20.8333Z" fill="#1A1A1A"/>
  <path d="M129.167 29.1667H158.333V41.6667H143.75V50H156.25V62.5H143.75V83.3333H129.167V29.1667Z" fill="#1A1A1A"/>
  <path d="M162.5 29.1667H177.083V50H191.667V29.1667H206.25V83.3333H191.667V62.5H177.083V83.3333H162.5V29.1667Z" fill="#1A1A1A"/>
  <path d="M212.5 29.1667H241.667V41.6667H227.083V50H239.583V62.5H227.083V70.8333H241.667V83.3333H212.5V29.1667Z" fill="#1A1A1A"/>
  <path d="M247.917 29.1667H262.5V70.8333H277.083V83.3333H247.917V29.1667Z" fill="#1A1A1A"/>
  <path d="M283.333 56.25C283.333 40.625 294.792 27.0833 312.5 27.0833C330.208 27.0833 341.667 40.625 341.667 56.25C341.667 71.875 330.208 85.4167 312.5 85.4167C294.792 85.4167 283.333 71.875 283.333 56.25ZM327.083 56.25C327.083 47.9167 321.875 41.6667 312.5 41.6667C303.125 41.6667 297.917 47.9167 297.917 56.25C297.917 64.5833 303.125 70.8333 312.5 70.8333C321.875 70.8333 327.083 64.5833 327.083 56.25Z" fill="#1A1A1A"/>
  <path d="M347.917 29.1667H362.5V70.8333H377.083V83.3333H347.917V29.1667Z" fill="#1A1A1A"/>
  <path d="M383.333 29.1667H397.917V83.3333H383.333V29.1667Z" fill="#1A1A1A"/>
  <path d="M404.167 29.1667H433.333V41.6667H418.75V50H431.25V62.5H418.75V83.3333H404.167V29.1667Z" fill="#1A1A1A"/>
  <path d="M439.583 29.1667H454.167V83.3333H439.583V29.1667Z" fill="#1A1A1A"/>
  <path d="M460.417 56.25C460.417 40.625 471.875 27.0833 489.583 27.0833C507.292 27.0833 518.75 40.625 518.75 56.25C518.75 71.875 507.292 85.4167 489.583 85.4167C471.875 85.4167 460.417 71.875 460.417 56.25ZM504.167 56.25C504.167 47.9167 498.958 41.6667 489.583 41.6667C480.208 41.6667 475 47.9167 475 56.25C475 64.5833 480.208 70.8333 489.583 70.8333C498.958 70.8333 504.167 64.5833 504.167 56.25Z" fill="#1A1A1A"/>
  <path d="M525 29.1667H539.583V70.8333H554.167V83.3333H525V29.1667Z" fill="#1A1A1A"/>
</svg>
